<svg
  width="82"
  height="67"
  viewBox="0 0 82 67"
  fill="none"
  xmlns="http://www.w3.org/2000/svg"
>
  <path
    d="M20.225 53.44C15.165 53.44 11.1867 51.9917 8.29 49.095C5.39333 46.1983 3.945 41.9633 3.945 36.39V14.5H9.445V36.17C9.445 40.46 10.38 43.595 12.25 45.575C14.1567 47.555 16.8333 48.545 20.28 48.545C23.7633 48.545 26.44 47.555 28.31 45.575C30.2167 43.595 31.17 40.46 31.17 36.17V14.5H36.505V36.39C36.505 41.9633 35.0567 46.1983 32.16 49.095C29.3 51.9917 25.3217 53.44 20.225 53.44Z"
    fill="white"
  />
  <path d="M48.5 53.5L48.5 28.5" stroke="#6CAFC0" stroke-width="5.5" />
  <path
    d="M62 42.5C69.4561 42.5 75.5 36.4561 75.5 29C75.5 21.5439 69.4561 15.5 62 15.5C54.5439 15.5 48.5 21.5439 48.5 29C48.5 36.4561 54.5439 42.5 62 42.5Z"
    stroke="#6CAFC0"
    stroke-width="5.5"
    stroke-linecap="round"
    stroke-linejoin="round"
  />
  <path
    d="M62 31.5C62.663 31.5 63.2989 31.2366 63.7678 30.7678C64.2366 30.2989 64.5 29.663 64.5 29C64.5 28.337 64.2366 27.7011 63.7678 27.2322C63.2989 26.7634 62.663 26.5 62 26.5C61.337 26.5 60.7011 26.7634 60.2322 27.2322C59.7634 27.7011 59.5 28.337 59.5 29C59.5 29.663 59.7634 30.2989 60.2322 30.7678C60.7011 31.2366 61.337 31.5 62 31.5Z"
    stroke="#6CAFC0"
    stroke-width="2.5"
    stroke-linecap="round"
    stroke-linejoin="round"
  />
</svg>