<svg width="98" height="34" viewBox="0 0 98 34" fill="none" xmlns="http://www.w3.org/2000/svg">
<path d="M2.94 27V7.4H5.236L14.028 22.212H12.796L21.476 7.4H23.772L23.8 27H21.112L21.084 11.628H21.728L14 24.62H12.712L4.928 11.628H5.628V27H2.94ZM29.9902 27V7.4H32.7902V27H29.9902ZM36.3902 27L44.5382 15.884V18.04L36.8382 7.4H40.0302L46.1342 15.772L44.8742 15.8L50.9502 7.4H54.0022L46.3582 17.872V15.856L54.5062 27H51.2862L44.7902 18.068H46.0222L39.6102 27H36.3902Z" fill="url(#paint0_linear_138_225)"/>
<path d="M66.234 27.224C63.658 27.224 61.6327 26.4867 60.158 25.012C58.6833 23.5373 57.946 21.3813 57.946 18.544V7.4H60.746V18.432C60.746 20.616 61.222 22.212 62.174 23.22C63.1447 24.228 64.5073 24.732 66.262 24.732C68.0353 24.732 69.398 24.228 70.35 23.22C71.3207 22.212 71.806 20.616 71.806 18.432V7.4H74.522V18.544C74.522 21.3813 73.7847 23.5373 72.31 25.012C70.854 26.4867 68.8287 27.224 66.234 27.224Z" fill="#6CAFC0"/>
<path d="M82 27V14" stroke="#6CAFC0" stroke-width="2.6"/>
<path d="M88 20C91.3138 20 94 17.3138 94 14C94 10.6862 91.3138 8 88 8C84.6862 8 82 10.6862 82 14C82 17.3138 84.6862 20 88 20Z" stroke="#6CAFC0" stroke-width="2.6" stroke-linecap="round" stroke-linejoin="round"/>
<path d="M88 15C88.2652 15 88.5196 14.8946 88.7071 14.7071C88.8946 14.5196 89 14.2652 89 14C89 13.7348 88.8946 13.4804 88.7071 13.2929C88.5196 13.1054 88.2652 13 88 13C87.7348 13 87.4804 13.1054 87.2929 13.2929C87.1054 13.4804 87 13.7348 87 14C87 14.2652 87.1054 14.5196 87.2929 14.7071C87.4804 14.8946 87.7348 15 88 15Z" stroke="#6CAFC0" stroke-linecap="round" stroke-linejoin="round"/>
<defs>
<linearGradient id="paint0_linear_138_225" x1="3.44118" y1="0" x2="73.9853" y2="0" gradientUnits="userSpaceOnUse">
<stop stop-color="white"/>
<stop offset="1" stop-color="white"/>
</linearGradient>
</defs>
</svg>
